<svg width="57" height="39" viewBox="0 0 57 39" fill="none" xmlns="http://www.w3.org/2000/svg">
<path d="M0 25.5938C0 31.6494 5.74453 36.5625 12.825 36.5625H45.6C51.8967 36.5625 57 32.1979 57 26.8125C57 22.0975 53.0812 18.1594 47.88 17.2605C48.2452 16.4455 48.45 15.5543 48.45 14.625C48.45 10.5879 44.6203 7.3125 39.9 7.3125C38.1455 7.3125 36.5067 7.76953 35.153 8.54648C32.6859 4.89023 28.0814 2.4375 22.8 2.4375C14.9269 2.4375 8.55 7.89141 8.55 14.625C8.55 14.8307 8.55891 15.0363 8.56781 15.242C3.58031 16.7426 0 20.8102 0 25.5938Z" fill="#F1EBEE"/>
</svg>
