<svg width="307" height="227" viewBox="0 0 307 227" fill="none" xmlns="http://www.w3.org/2000/svg">
<path d="M0 84C0 103.875 16.6289 120 37.125 120H132C150.227 120 165 105.675 165 88C165 72.525 153.656 59.6 138.6 56.65C139.657 53.975 140.25 51.05 140.25 48C140.25 34.75 129.164 24 115.5 24C110.421 24 105.677 25.5 101.759 28.05C94.6172 16.05 81.2883 8 66 8C43.2094 8 24.75 25.9 24.75 48C24.75 48.675 24.7758 49.35 24.8016 50.025C10.3641 54.95 0 68.3 0 84Z" fill="#F1EBEE"/>
<path d="M206 125.312C206 135.561 216.179 143.875 228.725 143.875H286.8C297.957 143.875 307 136.489 307 127.375C307 119.396 300.056 112.731 290.84 111.21C291.487 109.831 291.85 108.323 291.85 106.75C291.85 99.918 285.064 94.375 276.7 94.375C273.591 94.375 270.687 95.1484 268.289 96.4633C263.917 90.2758 255.758 86.125 246.4 86.125C232.449 86.125 221.15 95.3547 221.15 106.75C221.15 107.098 221.166 107.446 221.182 107.794C212.344 110.334 206 117.217 206 125.312Z" fill="#F1EBEE"/>
<path d="M81 199.844C81 212.11 93.5977 222.062 109.125 222.062H181C194.809 222.062 206 213.221 206 202.312C206 192.762 197.406 184.784 186 182.964C186.801 181.313 187.25 179.507 187.25 177.625C187.25 169.447 178.852 162.812 168.5 162.812C164.652 162.812 161.059 163.738 158.09 165.312C152.68 157.906 142.582 152.938 131 152.938C113.734 152.938 99.75 163.985 99.75 177.625C99.75 178.042 99.7695 178.458 99.7891 178.875C88.8516 181.914 81 190.154 81 199.844Z" fill="#F1EBEE"/>
</svg>
