<svg xmlns="http://www.w3.org/2000/svg" xmlns:xlink="http://www.w3.org/1999/xlink" id="Calque_1" x="0px" y="0px" viewBox="0 0 80 70" style="enable-background:new 0 0 80 70;" xml:space="preserve">
<style type="text/css">
	.st0{fill:#EBCC6C;}
</style>
<g>
	<g>
		<path class="st0" style="fill: #c2a6b4;" d="M44.9,60.7c-4.9,1.4-9.7,1.3-14.2,0c-4.9-1.5-8.8-4-11.5-7.6c-0.5-0.7-0.8-1.3-0.8-1.7c0-0.2,0-0.3,0.1-0.3    c0,0,0.2-0.1,1-0.1c2.1-0.1,4.3-1,6.4-2.6c2.4-1.9,3.8-4.5,4.2-8c0.4-3.4-0.5-6.6-2.6-9.3c-2.2-2.9-5.2-4.6-9.1-5.1    c-3.8-0.5-7.3,0.4-10.4,2.8c-3.6,2.8-5.6,6.6-5.9,11.5C1.8,45.1,3.5,50,7.2,54.9c4.3,5.7,10,9.4,16.9,11.2c2.6,0.7,5.4,1,8.4,1    c4.3,0,8.9-0.7,13.9-2.1c0.7-0.2,1.3-0.7,1.5-1.4c0.2-0.7,0.1-1.5-0.3-2.1C47,60.8,45.9,60.4,44.9,60.7z"></path>
		<path class="st0" style="fill: #c2a6b4;" d="M77.5,38.7c-0.6-0.8-1.7-1.2-2.7-0.9c-4.9,1.4-9.7,1.3-14.2,0c-4.9-1.5-8.8-4-11.5-7.6    c-0.5-0.7-0.8-1.3-0.8-1.7c0-0.2,0-0.3,0.1-0.3c0,0,0.2-0.1,1-0.1c2.1-0.1,4.3-1,6.4-2.6c2.4-1.9,3.8-4.5,4.2-8    c0.4-3.4-0.5-6.6-2.6-9.3c-2.2-2.9-5.2-4.6-9.1-5.1C44.5,2.5,41,3.4,37.9,5.8c-3.6,2.8-5.6,6.6-5.9,11.5    c-0.3,4.9,1.4,9.8,5.1,14.7c4.3,5.7,10,9.4,16.9,11.2c2.6,0.7,5.4,1,8.4,1c4.3,0,8.9-0.7,13.9-2.1c0.7-0.2,1.3-0.7,1.5-1.4    C78.1,40,77.9,39.3,77.5,38.7L77.5,38.7z"></path>
	</g>
</g>
</svg>